<svg width="200" height="200" viewBox="0 0 200 200" xmlns="http://www.w3.org/2000/svg">
  <!-- Background circle -->
  <circle cx="100" cy="100" r="95" fill="#0f172a" stroke="#4cc9f0" stroke-width="2"/>

  <!-- Humanoid robot icon -->
  <!-- Head -->
  <circle cx="100" cy="70" r="15" fill="#4cc9f0"/>

  <!-- Body -->
  <rect x="90" y="85" width="20" height="30" fill="#4cc9f0"/>

  <!-- Arms -->
  <line x1="75" y1="95" x2="90" y2="95" stroke="#4cc9f0" stroke-width="5" stroke-linecap="round"/>
  <line x1="110" y1="95" x2="125" y2="95" stroke="#4cc9f0" stroke-width="5" stroke-linecap="round"/>

  <!-- Legs -->
  <line x1="95" y1="115" x2="95" y2="140" stroke="#4cc9f0" stroke-width="5" stroke-linecap="round"/>
  <line x1="105" y1="115" x2="105" y2="140" stroke="#4cc9f0" stroke-width="5" stroke-linecap="round"/>

  <!-- AI Brain symbol -->
  <path d="M140 50 Q160 40, 170 60 Q180 80, 170 90 Q160 100, 140 90 Q130 80, 140 70 Z" fill="#7209b7"/>

  <!-- Connection lines between robot and brain -->
  <line x1="115" y1="75" x2="140" y2="65" stroke="#7209b7" stroke-width="2" stroke-dasharray="4,2"/>
  <line x1="115" y1="85" x2="140" y2="85" stroke="#7209b7" stroke-width="2" stroke-dasharray="4,2"/>
  <line x1="115" y1="95" x2="140" y2="105" stroke="#7209b7" stroke-width="2" stroke-dasharray="4,2"/>

  <!-- Title text -->
  <text x="100" y="185" text-anchor="middle" font-family="Arial, sans-serif"
        font-size="14" fill="#e2e8f0">Physical AI &</text>
  <text x="100" y="198" text-anchor="middle" font-family="Arial, sans-serif"
        font-size="14" fill="#e2e8f0">Humanoid Robotics</text>
</svg>